# xmcd CD database file
#
# Track frame offsets:
#	150
#	16428
#	37364
#	60138
#	81176
#	97915
#	120279
#	147217
#	162127
#	178059
#	201801
#	228126
#	257447
#	272809
#	279389
#
# Disc length: 3911 seconds
#
# Revision: 0
# Processed by: cddbd v1.5.2PL0 Copyright (c) Steve Scherf et al.
# Submitted via: cdripper 1.0.8
#
DISCID=bf0f450f
DTITLE=TheSherwood Blues Band - Here I Go
DYEAR=2005
DGENRE=Blues
TTITLE0=We're Just Gettin' Warmed Up
TTITLE1=Blues Get To Rollin'
TTITLE2=Walking Blues
TTITLE3=Two O'clock In The Mornin'
TTITLE4=My Baby Calls Me Sherwood
TTITLE5=Give Me One Reason
TTITLE6=Knockin' On Heaven's Door
TTITLE7=Killing Floor
TTITLE8=Walk On
TTITLE9=Here I Go
TTITLE10=Rollin' and Tumblin'
TTITLE11=Amazing Grace
TTITLE12=When I Lay My Burden Down
TTITLE13=Old Mama Lucy
TTITLE14=I Want Jesus To Walk With Me
EXTD=YEAR: 2005
EXTT0=
EXTT1=
EXTT2=
EXTT3=
EXTT4=
EXTT5=
EXTT6=
EXTT7=
EXTT8=
EXTT9=
EXTT10=
EXTT11=
EXTT12=
EXTT13=
EXTT14=
PLAYORDER=
